<mxfile host="Electron" modified="2024-05-02T13:32:19.814Z" agent="Mozilla/5.0 (Macintosh; Intel Mac OS X 10_15_7) AppleWebKit/537.36 (KHTML, like Gecko) draw.io/24.2.5 Chrome/120.0.6099.109 Electron/28.1.0 Safari/537.36" etag="DWMBf8gVw-VLD_pTj5EV" version="24.2.5" type="device">
  <diagram name="Page-1" id="Y3UaTJ8WumLp9_YWQqZv">
    <mxGraphModel dx="1514" dy="924" grid="0" gridSize="10" guides="0" tooltips="1" connect="1" arrows="1" fold="1" page="0" pageScale="1" pageWidth="850" pageHeight="1100" math="0" shadow="0">
      <root>
        <mxCell id="0" />
        <mxCell id="1" parent="0" />
        <mxCell id="tV8s_Av4Yjl4Zx8UvEJx-39" value="" style="rounded=0;whiteSpace=wrap;html=1;shadow=1;sketch=1;jiggle=2;curveFitting=1;align=center;verticalAlign=middle;fontFamily=Comic Sans MS;fontSize=16;" parent="1" vertex="1">
          <mxGeometry x="229" y="202" width="600" height="560" as="geometry" />
        </mxCell>
        <mxCell id="tV8s_Av4Yjl4Zx8UvEJx-1" value="Prisma&lt;div style=&quot;font-size: 16px;&quot;&gt;Cloud&lt;/div&gt;" style="rounded=1;whiteSpace=wrap;html=1;sketch=1;curveFitting=1;jiggle=2;fillColor=#e1d5e7;strokeColor=#9673a6;fontFamily=Comic Sans MS;fontSize=16;shadow=1;" parent="1" vertex="1">
          <mxGeometry x="-247" y="346" width="230" height="78" as="geometry" />
        </mxCell>
        <mxCell id="tV8s_Av4Yjl4Zx8UvEJx-3" value="" style="shape=image;imageAspect=0;aspect=fixed;verticalLabelPosition=bottom;verticalAlign=top;image=https://zeevector.com/wp-content/uploads/Aws-Logo-PNG-White.png;fontFamily=Comic Sans MS;" parent="1" vertex="1">
          <mxGeometry x="229" y="202" width="47.71" height="30" as="geometry" />
        </mxCell>
        <mxCell id="tV8s_Av4Yjl4Zx8UvEJx-9" value="Transit&lt;div&gt;Gateway&lt;/div&gt;" style="sketch=0;points=[[0,0,0],[0.25,0,0],[0.5,0,0],[0.75,0,0],[1,0,0],[0,1,0],[0.25,1,0],[0.5,1,0],[0.75,1,0],[1,1,0],[0,0.25,0],[0,0.5,0],[0,0.75,0],[1,0.25,0],[1,0.5,0],[1,0.75,0]];outlineConnect=0;fontColor=#232F3E;fillColor=#8C4FFF;strokeColor=#ffffff;dashed=0;verticalLabelPosition=bottom;verticalAlign=top;align=center;html=1;fontSize=12;fontStyle=0;aspect=fixed;shape=mxgraph.aws4.resourceIcon;resIcon=mxgraph.aws4.transit_gateway;fontFamily=Comic Sans MS;" parent="1" vertex="1">
          <mxGeometry x="417" y="472" width="38" height="38" as="geometry" />
        </mxCell>
        <mxCell id="tV8s_Av4Yjl4Zx8UvEJx-17" style="edgeStyle=orthogonalEdgeStyle;curved=1;rounded=0;orthogonalLoop=1;jettySize=auto;html=1;exitX=0;exitY=0.5;exitDx=0;exitDy=0;sketch=1;curveFitting=1;jiggle=2;fontFamily=Comic Sans MS;" parent="1" source="tV8s_Av4Yjl4Zx8UvEJx-13" target="tV8s_Av4Yjl4Zx8UvEJx-9" edge="1">
          <mxGeometry relative="1" as="geometry" />
        </mxCell>
        <mxCell id="tV8s_Av4Yjl4Zx8UvEJx-40" value="Network Flow logs" style="edgeStyle=orthogonalEdgeStyle;curved=1;rounded=0;orthogonalLoop=1;jettySize=auto;html=1;exitX=0.5;exitY=1;exitDx=0;exitDy=0;strokeColor=default;align=center;verticalAlign=middle;fontFamily=Comic Sans MS;fontSize=13;fontColor=default;labelBackgroundColor=default;endArrow=classic;entryX=1;entryY=0.5;entryDx=0;entryDy=0;entryPerimeter=0;flowAnimation=1;dashed=1;strokeWidth=2;" parent="1" source="tV8s_Av4Yjl4Zx8UvEJx-13" target="tV8s_Av4Yjl4Zx8UvEJx-38" edge="1">
          <mxGeometry x="-0.0803" y="-28" relative="1" as="geometry">
            <mxPoint as="offset" />
          </mxGeometry>
        </mxCell>
        <mxCell id="tV8s_Av4Yjl4Zx8UvEJx-13" value="" style="rounded=1;whiteSpace=wrap;html=1;fillColor=#f5f5f5;fontColor=#333333;strokeColor=#666666;sketch=1;curveFitting=1;jiggle=2;fontFamily=Comic Sans MS;" parent="1" vertex="1">
          <mxGeometry x="501" y="510" width="210" height="90" as="geometry" />
        </mxCell>
        <mxCell id="tV8s_Av4Yjl4Zx8UvEJx-14" value="" style="sketch=0;points=[[0,0,0],[0.25,0,0],[0.5,0,0],[0.75,0,0],[1,0,0],[0,1,0],[0.25,1,0],[0.5,1,0],[0.75,1,0],[1,1,0],[0,0.25,0],[0,0.5,0],[0,0.75,0],[1,0.25,0],[1,0.5,0],[1,0.75,0]];outlineConnect=0;fontColor=#232F3E;fillColor=#8C4FFF;strokeColor=#ffffff;dashed=0;verticalLabelPosition=bottom;verticalAlign=top;align=center;html=1;fontSize=12;fontStyle=0;aspect=fixed;shape=mxgraph.aws4.resourceIcon;resIcon=mxgraph.aws4.vpc;fontFamily=Comic Sans MS;" parent="1" vertex="1">
          <mxGeometry x="501" y="510" width="20" height="20" as="geometry" />
        </mxCell>
        <mxCell id="tV8s_Av4Yjl4Zx8UvEJx-15" value="EC2" style="sketch=0;points=[[0,0,0],[0.25,0,0],[0.5,0,0],[0.75,0,0],[1,0,0],[0,1,0],[0.25,1,0],[0.5,1,0],[0.75,1,0],[1,1,0],[0,0.25,0],[0,0.5,0],[0,0.75,0],[1,0.25,0],[1,0.5,0],[1,0.75,0]];outlineConnect=0;fontColor=#232F3E;fillColor=#ED7100;strokeColor=#ffffff;dashed=0;verticalLabelPosition=bottom;verticalAlign=top;align=center;html=1;fontSize=12;fontStyle=0;aspect=fixed;shape=mxgraph.aws4.resourceIcon;resIcon=mxgraph.aws4.ec2;fontFamily=Comic Sans MS;" parent="1" vertex="1">
          <mxGeometry x="541" y="530" width="38" height="38" as="geometry" />
        </mxCell>
        <mxCell id="tV8s_Av4Yjl4Zx8UvEJx-16" value="EC2" style="sketch=0;points=[[0,0,0],[0.25,0,0],[0.5,0,0],[0.75,0,0],[1,0,0],[0,1,0],[0.25,1,0],[0.5,1,0],[0.75,1,0],[1,1,0],[0,0.25,0],[0,0.5,0],[0,0.75,0],[1,0.25,0],[1,0.5,0],[1,0.75,0]];outlineConnect=0;fontColor=#232F3E;fillColor=#ED7100;strokeColor=#ffffff;dashed=0;verticalLabelPosition=bottom;verticalAlign=top;align=center;html=1;fontSize=12;fontStyle=0;aspect=fixed;shape=mxgraph.aws4.resourceIcon;resIcon=mxgraph.aws4.ec2;fontFamily=Comic Sans MS;" parent="1" vertex="1">
          <mxGeometry x="591" y="530" width="38" height="38" as="geometry" />
        </mxCell>
        <mxCell id="tV8s_Av4Yjl4Zx8UvEJx-18" style="edgeStyle=orthogonalEdgeStyle;curved=1;rounded=0;orthogonalLoop=1;jettySize=auto;html=1;exitX=0;exitY=0.5;exitDx=0;exitDy=0;sketch=1;curveFitting=1;jiggle=2;fontFamily=Comic Sans MS;entryX=1;entryY=0.25;entryDx=0;entryDy=0;entryPerimeter=0;" parent="1" target="tV8s_Av4Yjl4Zx8UvEJx-9" edge="1">
          <mxGeometry relative="1" as="geometry">
            <mxPoint x="501" y="438" as="sourcePoint" />
            <mxPoint x="425" y="374" as="targetPoint" />
          </mxGeometry>
        </mxCell>
        <mxCell id="tV8s_Av4Yjl4Zx8UvEJx-4" value="" style="rounded=1;whiteSpace=wrap;html=1;fillColor=#f5f5f5;fontColor=#333333;strokeColor=#666666;sketch=1;curveFitting=1;jiggle=2;fontFamily=Comic Sans MS;" parent="1" vertex="1">
          <mxGeometry x="257" y="392" width="100" height="220" as="geometry" />
        </mxCell>
        <mxCell id="tV8s_Av4Yjl4Zx8UvEJx-7" value="" style="sketch=0;points=[[0,0,0],[0.25,0,0],[0.5,0,0],[0.75,0,0],[1,0,0],[0,1,0],[0.25,1,0],[0.5,1,0],[0.75,1,0],[1,1,0],[0,0.25,0],[0,0.5,0],[0,0.75,0],[1,0.25,0],[1,0.5,0],[1,0.75,0]];outlineConnect=0;fontColor=#232F3E;fillColor=#8C4FFF;strokeColor=#ffffff;dashed=0;verticalLabelPosition=bottom;verticalAlign=top;align=center;html=1;fontSize=12;fontStyle=0;aspect=fixed;shape=mxgraph.aws4.resourceIcon;resIcon=mxgraph.aws4.vpc;fontFamily=Comic Sans MS;" parent="1" vertex="1">
          <mxGeometry x="257" y="392" width="20" height="20" as="geometry" />
        </mxCell>
        <mxCell id="tV8s_Av4Yjl4Zx8UvEJx-30" style="edgeStyle=orthogonalEdgeStyle;curved=1;rounded=0;orthogonalLoop=1;jettySize=auto;html=1;exitX=0;exitY=0.5;exitDx=0;exitDy=0;sketch=1;curveFitting=1;jiggle=2;fontFamily=Comic Sans MS;entryX=1.01;entryY=0.55;entryDx=0;entryDy=0;entryPerimeter=0;exitPerimeter=0;" parent="1" source="tV8s_Av4Yjl4Zx8UvEJx-9" target="tV8s_Av4Yjl4Zx8UvEJx-4" edge="1">
          <mxGeometry relative="1" as="geometry">
            <mxPoint x="511" y="448" as="sourcePoint" />
            <mxPoint x="465" y="492" as="targetPoint" />
          </mxGeometry>
        </mxCell>
        <mxCell id="tV8s_Av4Yjl4Zx8UvEJx-32" value="Network&lt;div&gt;Load&lt;/div&gt;&lt;div&gt;Balancer&lt;/div&gt;" style="sketch=0;outlineConnect=0;fontColor=#232F3E;gradientColor=none;fillColor=#8C4FFF;strokeColor=none;dashed=0;verticalLabelPosition=bottom;verticalAlign=top;align=center;html=1;fontSize=12;fontStyle=0;aspect=fixed;pointerEvents=1;shape=mxgraph.aws4.network_load_balancer;fontFamily=Comic Sans MS;labelBackgroundColor=default;" parent="1" vertex="1">
          <mxGeometry x="283" y="462" width="48" height="48" as="geometry" />
        </mxCell>
        <mxCell id="tV8s_Av4Yjl4Zx8UvEJx-38" value="s3" style="shape=cylinder3;whiteSpace=wrap;html=1;boundedLbl=1;backgroundOutline=1;size=15;rounded=1;shadow=1;sketch=1;jiggle=2;curveFitting=1;strokeColor=#666666;align=center;verticalAlign=middle;fontFamily=Comic Sans MS;fontSize=16;fontColor=#333333;fillColor=#f5f5f5;" parent="1" vertex="1">
          <mxGeometry x="299" y="655" width="60" height="80" as="geometry" />
        </mxCell>
        <mxCell id="tV8s_Av4Yjl4Zx8UvEJx-42" value="" style="line;strokeWidth=2;html=1;rounded=1;shadow=0;strokeColor=#808080;align=center;verticalAlign=middle;fontFamily=Comic Sans MS;fontSize=16;fontColor=default;fillColor=#e1d5e7;dashed=1;" parent="1" vertex="1">
          <mxGeometry x="249" y="342" width="540" height="11.25" as="geometry" />
        </mxCell>
        <mxCell id="tV8s_Av4Yjl4Zx8UvEJx-43" value="Audit Logs&lt;br&gt;(UEBA)" style="edgeStyle=orthogonalEdgeStyle;curved=1;rounded=0;orthogonalLoop=1;jettySize=auto;html=1;exitX=0;exitY=0.25;exitDx=0;exitDy=0;strokeColor=#FF00FF;align=center;verticalAlign=middle;fontFamily=Comic Sans MS;fontSize=13;fontColor=default;labelBackgroundColor=default;endArrow=none;entryX=0.5;entryY=0;entryDx=0;entryDy=0;flowAnimation=1;dashed=1;strokeWidth=2;startArrow=classic;startFill=1;endFill=0;" parent="1" source="tV8s_Av4Yjl4Zx8UvEJx-3" target="tV8s_Av4Yjl4Zx8UvEJx-1" edge="1">
          <mxGeometry x="0.1138" y="24" relative="1" as="geometry">
            <mxPoint x="229" y="337" as="sourcePoint" />
            <mxPoint x="-40" y="429" as="targetPoint" />
            <mxPoint as="offset" />
          </mxGeometry>
        </mxCell>
        <mxCell id="tV8s_Av4Yjl4Zx8UvEJx-44" value="Cloud Configs&lt;br&gt;(CSPM)" style="edgeStyle=orthogonalEdgeStyle;curved=1;rounded=0;orthogonalLoop=1;jettySize=auto;html=1;exitX=0;exitY=0.75;exitDx=0;exitDy=0;strokeColor=#FF00FF;align=center;verticalAlign=middle;fontFamily=Comic Sans MS;fontSize=13;fontColor=default;labelBackgroundColor=default;endArrow=none;entryX=0.75;entryY=0;entryDx=0;entryDy=0;flowAnimation=1;dashed=1;strokeWidth=2;startArrow=classic;startFill=1;endFill=0;" parent="1" source="tV8s_Av4Yjl4Zx8UvEJx-3" target="tV8s_Av4Yjl4Zx8UvEJx-1" edge="1">
          <mxGeometry x="-0.1041" y="26" relative="1" as="geometry">
            <mxPoint x="239" y="220" as="sourcePoint" />
            <mxPoint x="39" y="347" as="targetPoint" />
            <mxPoint as="offset" />
          </mxGeometry>
        </mxCell>
        <mxCell id="tV8s_Av4Yjl4Zx8UvEJx-47" style="edgeStyle=orthogonalEdgeStyle;curved=1;rounded=0;sketch=1;jiggle=2;curveFitting=1;orthogonalLoop=1;jettySize=auto;html=1;exitX=0.75;exitY=0.1;exitDx=0;exitDy=0;exitPerimeter=0;strokeColor=default;align=center;verticalAlign=middle;fontFamily=Comic Sans MS;fontSize=16;fontColor=default;labelBackgroundColor=default;endArrow=classic;" parent="1" source="tV8s_Av4Yjl4Zx8UvEJx-45" target="tV8s_Av4Yjl4Zx8UvEJx-32" edge="1">
          <mxGeometry relative="1" as="geometry" />
        </mxCell>
        <mxCell id="tV8s_Av4Yjl4Zx8UvEJx-45" value="Application Users" style="shape=umlActor;verticalLabelPosition=bottom;verticalAlign=top;html=1;outlineConnect=0;rounded=1;shadow=1;sketch=1;jiggle=2;curveFitting=1;strokeColor=#1A1A1A;align=center;fontFamily=Comic Sans MS;fontSize=16;fontColor=default;fillColor=#e1d5e7;" parent="1" vertex="1">
          <mxGeometry x="99" y="470" width="30" height="60" as="geometry" />
        </mxCell>
        <mxCell id="tV8s_Av4Yjl4Zx8UvEJx-48" value="Flow Logs&lt;div&gt;Injection&lt;/div&gt;" style="edgeStyle=orthogonalEdgeStyle;curved=1;rounded=0;orthogonalLoop=1;jettySize=auto;html=1;exitX=0;exitY=0;exitDx=0;exitDy=52.5;strokeColor=#3333FF;align=center;verticalAlign=middle;fontFamily=Comic Sans MS;fontSize=13;fontColor=default;labelBackgroundColor=default;endArrow=none;flowAnimation=1;dashed=1;exitPerimeter=0;entryX=0.899;entryY=1.026;entryDx=0;entryDy=0;strokeWidth=2;entryPerimeter=0;startArrow=classic;startFill=1;endFill=0;" parent="1" source="tV8s_Av4Yjl4Zx8UvEJx-38" target="tV8s_Av4Yjl4Zx8UvEJx-1" edge="1">
          <mxGeometry x="-0.5781" y="-21" relative="1" as="geometry">
            <mxPoint x="99" y="622" as="sourcePoint" />
            <mxPoint x="-41" y="532" as="targetPoint" />
            <mxPoint as="offset" />
            <Array as="points">
              <mxPoint x="277" y="702" />
              <mxPoint x="13" y="702" />
              <mxPoint x="13" y="467" />
              <mxPoint x="-24" y="467" />
              <mxPoint x="-24" y="426" />
            </Array>
          </mxGeometry>
        </mxCell>
        <mxCell id="tV8s_Av4Yjl4Zx8UvEJx-50" value="" style="rounded=1;whiteSpace=wrap;html=1;fillColor=#e1d5e7;strokeColor=#9673a6;sketch=1;curveFitting=1;jiggle=2;fontFamily=Comic Sans MS;" parent="1" vertex="1">
          <mxGeometry x="389" y="222" width="210" height="90" as="geometry" />
        </mxCell>
        <mxCell id="tV8s_Av4Yjl4Zx8UvEJx-51" value="" style="sketch=0;points=[[0,0,0],[0.25,0,0],[0.5,0,0],[0.75,0,0],[1,0,0],[0,1,0],[0.25,1,0],[0.5,1,0],[0.75,1,0],[1,1,0],[0,0.25,0],[0,0.5,0],[0,0.75,0],[1,0.25,0],[1,0.5,0],[1,0.75,0]];outlineConnect=0;fontColor=#232F3E;fillColor=#8C4FFF;strokeColor=#ffffff;dashed=0;verticalLabelPosition=bottom;verticalAlign=top;align=center;html=1;fontSize=12;fontStyle=0;aspect=fixed;shape=mxgraph.aws4.resourceIcon;resIcon=mxgraph.aws4.vpc;fontFamily=Comic Sans MS;" parent="1" vertex="1">
          <mxGeometry x="389" y="222" width="20" height="20" as="geometry" />
        </mxCell>
        <mxCell id="tV8s_Av4Yjl4Zx8UvEJx-62" style="edgeStyle=orthogonalEdgeStyle;curved=1;rounded=0;sketch=1;jiggle=2;curveFitting=1;orthogonalLoop=1;jettySize=auto;html=1;exitX=0;exitY=0.5;exitDx=0;exitDy=0;exitPerimeter=0;strokeColor=default;align=center;verticalAlign=middle;fontFamily=Comic Sans MS;fontSize=16;fontColor=default;labelBackgroundColor=default;endArrow=classic;" parent="1" source="tV8s_Av4Yjl4Zx8UvEJx-52" target="tV8s_Av4Yjl4Zx8UvEJx-61" edge="1">
          <mxGeometry relative="1" as="geometry" />
        </mxCell>
        <mxCell id="tV8s_Av4Yjl4Zx8UvEJx-52" value="Prisma Cloud Scanner VM" style="sketch=0;points=[[0,0,0],[0.25,0,0],[0.5,0,0],[0.75,0,0],[1,0,0],[0,1,0],[0.25,1,0],[0.5,1,0],[0.75,1,0],[1,1,0],[0,0.25,0],[0,0.5,0],[0,0.75,0],[1,0.25,0],[1,0.5,0],[1,0.75,0]];outlineConnect=0;fontColor=#232F3E;fillColor=#ED7100;strokeColor=#ffffff;dashed=0;verticalLabelPosition=bottom;verticalAlign=top;align=center;html=1;fontSize=12;fontStyle=0;aspect=fixed;shape=mxgraph.aws4.resourceIcon;resIcon=mxgraph.aws4.ec2;fontFamily=Comic Sans MS;" parent="1" vertex="1">
          <mxGeometry x="475" y="242" width="38" height="38" as="geometry" />
        </mxCell>
        <mxCell id="tV8s_Av4Yjl4Zx8UvEJx-54" value="ebs" style="rounded=1;whiteSpace=wrap;html=1;shadow=1;sketch=1;jiggle=2;curveFitting=1;strokeColor=#82b366;align=center;verticalAlign=middle;fontFamily=Comic Sans MS;fontSize=16;fillColor=#d5e8d4;" parent="1" vertex="1">
          <mxGeometry x="539" y="357" width="40" height="20" as="geometry" />
        </mxCell>
        <mxCell id="tV8s_Av4Yjl4Zx8UvEJx-55" value="ebs" style="rounded=1;whiteSpace=wrap;html=1;shadow=1;sketch=1;jiggle=2;curveFitting=1;strokeColor=#82b366;align=center;verticalAlign=middle;fontFamily=Comic Sans MS;fontSize=16;fillColor=#d5e8d4;" parent="1" vertex="1">
          <mxGeometry x="609" y="357" width="40" height="20" as="geometry" />
        </mxCell>
        <mxCell id="tV8s_Av4Yjl4Zx8UvEJx-26" value="" style="rounded=1;whiteSpace=wrap;html=1;fillColor=#f5f5f5;fontColor=#333333;strokeColor=#666666;sketch=1;curveFitting=1;jiggle=2;fontFamily=Comic Sans MS;" parent="1" vertex="1">
          <mxGeometry x="499" y="392" width="210" height="90" as="geometry" />
        </mxCell>
        <mxCell id="tV8s_Av4Yjl4Zx8UvEJx-27" value="" style="sketch=0;points=[[0,0,0],[0.25,0,0],[0.5,0,0],[0.75,0,0],[1,0,0],[0,1,0],[0.25,1,0],[0.5,1,0],[0.75,1,0],[1,1,0],[0,0.25,0],[0,0.5,0],[0,0.75,0],[1,0.25,0],[1,0.5,0],[1,0.75,0]];outlineConnect=0;fontColor=#232F3E;fillColor=#8C4FFF;strokeColor=#ffffff;dashed=0;verticalLabelPosition=bottom;verticalAlign=top;align=center;html=1;fontSize=12;fontStyle=0;aspect=fixed;shape=mxgraph.aws4.resourceIcon;resIcon=mxgraph.aws4.vpc;fontFamily=Comic Sans MS;" parent="1" vertex="1">
          <mxGeometry x="499" y="392" width="20" height="20" as="geometry" />
        </mxCell>
        <mxCell id="tV8s_Av4Yjl4Zx8UvEJx-59" style="edgeStyle=orthogonalEdgeStyle;curved=1;rounded=0;sketch=1;jiggle=2;curveFitting=1;orthogonalLoop=1;jettySize=auto;html=1;exitX=0.5;exitY=0;exitDx=0;exitDy=0;exitPerimeter=0;entryX=0.5;entryY=1;entryDx=0;entryDy=0;strokeColor=default;align=center;verticalAlign=middle;fontFamily=Comic Sans MS;fontSize=16;fontColor=default;labelBackgroundColor=default;endArrow=classic;" parent="1" source="tV8s_Av4Yjl4Zx8UvEJx-28" target="tV8s_Av4Yjl4Zx8UvEJx-54" edge="1">
          <mxGeometry relative="1" as="geometry" />
        </mxCell>
        <mxCell id="tV8s_Av4Yjl4Zx8UvEJx-28" value="EC2" style="sketch=0;points=[[0,0,0],[0.25,0,0],[0.5,0,0],[0.75,0,0],[1,0,0],[0,1,0],[0.25,1,0],[0.5,1,0],[0.75,1,0],[1,1,0],[0,0.25,0],[0,0.5,0],[0,0.75,0],[1,0.25,0],[1,0.5,0],[1,0.75,0]];outlineConnect=0;fontColor=#232F3E;fillColor=#ED7100;strokeColor=#ffffff;dashed=0;verticalLabelPosition=bottom;verticalAlign=top;align=center;html=1;fontSize=12;fontStyle=0;aspect=fixed;shape=mxgraph.aws4.resourceIcon;resIcon=mxgraph.aws4.ec2;fontFamily=Comic Sans MS;" parent="1" vertex="1">
          <mxGeometry x="539" y="412" width="38" height="38" as="geometry" />
        </mxCell>
        <mxCell id="tV8s_Av4Yjl4Zx8UvEJx-60" style="edgeStyle=orthogonalEdgeStyle;curved=1;rounded=0;sketch=1;jiggle=2;curveFitting=1;orthogonalLoop=1;jettySize=auto;html=1;exitX=0.5;exitY=0;exitDx=0;exitDy=0;exitPerimeter=0;entryX=0.5;entryY=1;entryDx=0;entryDy=0;strokeColor=default;align=center;verticalAlign=middle;fontFamily=Comic Sans MS;fontSize=16;fontColor=default;labelBackgroundColor=default;endArrow=classic;" parent="1" source="tV8s_Av4Yjl4Zx8UvEJx-29" target="tV8s_Av4Yjl4Zx8UvEJx-55" edge="1">
          <mxGeometry relative="1" as="geometry" />
        </mxCell>
        <mxCell id="tV8s_Av4Yjl4Zx8UvEJx-29" value="EKS NOdes" style="sketch=0;points=[[0,0,0],[0.25,0,0],[0.5,0,0],[0.75,0,0],[1,0,0],[0,1,0],[0.25,1,0],[0.5,1,0],[0.75,1,0],[1,1,0],[0,0.25,0],[0,0.5,0],[0,0.75,0],[1,0.25,0],[1,0.5,0],[1,0.75,0]];outlineConnect=0;fontColor=#232F3E;fillColor=#ED7100;strokeColor=#ffffff;dashed=0;verticalLabelPosition=bottom;verticalAlign=top;align=center;html=1;fontSize=12;fontStyle=0;aspect=fixed;shape=mxgraph.aws4.resourceIcon;resIcon=mxgraph.aws4.ec2;fontFamily=Comic Sans MS;" parent="1" vertex="1">
          <mxGeometry x="609" y="412" width="38" height="38" as="geometry" />
        </mxCell>
        <mxCell id="tV8s_Av4Yjl4Zx8UvEJx-61" value="" style="outlineConnect=0;dashed=0;verticalLabelPosition=bottom;verticalAlign=top;align=center;html=1;shape=mxgraph.aws3.internet_gateway;fillColor=#F58536;gradientColor=none;rounded=1;shadow=0;strokeColor=#9673a6;fontFamily=Comic Sans MS;fontSize=16;fontColor=default;" parent="1" vertex="1">
          <mxGeometry x="298.67" y="247" width="38.33" height="40" as="geometry" />
        </mxCell>
        <mxCell id="tV8s_Av4Yjl4Zx8UvEJx-63" value="Cloud Workload&lt;div style=&quot;font-size: 11px;&quot;&gt;Scanning Results&lt;/div&gt;" style="edgeStyle=orthogonalEdgeStyle;curved=1;rounded=0;orthogonalLoop=1;jettySize=auto;html=1;strokeColor=default;align=center;verticalAlign=middle;fontFamily=Comic Sans MS;fontSize=11;fontColor=default;labelBackgroundColor=default;endArrow=classic;entryX=1;entryY=0.5;entryDx=0;entryDy=0;flowAnimation=1;dashed=1;strokeWidth=2;" parent="1" target="tV8s_Av4Yjl4Zx8UvEJx-1" edge="1">
          <mxGeometry x="0.0292" y="5" relative="1" as="geometry">
            <mxPoint x="299" y="272" as="sourcePoint" />
            <mxPoint x="49" y="347" as="targetPoint" />
            <mxPoint as="offset" />
          </mxGeometry>
        </mxCell>
        <mxCell id="tV8s_Av4Yjl4Zx8UvEJx-64" value="&lt;ul style=&quot;font-size: 14px;&quot;&gt;&lt;li style=&quot;font-size: 14px;&quot;&gt;Vulerability&lt;/li&gt;&lt;li style=&quot;font-size: 14px;&quot;&gt;Compliance&lt;/li&gt;&lt;li style=&quot;font-size: 14px;&quot;&gt;Embedded Secret&lt;/li&gt;&lt;li style=&quot;font-size: 14px;&quot;&gt;Malware&lt;/li&gt;&lt;/ul&gt;" style="edgeStyle=orthogonalEdgeStyle;curved=1;rounded=0;sketch=1;jiggle=2;curveFitting=1;orthogonalLoop=1;jettySize=auto;html=1;exitX=0.5;exitY=0;exitDx=0;exitDy=0;entryX=1;entryY=0.5;entryDx=0;entryDy=0;entryPerimeter=0;strokeColor=default;align=left;verticalAlign=middle;fontFamily=Comic Sans MS;fontSize=14;fontColor=default;labelBackgroundColor=none;endArrow=classic;" parent="1" source="tV8s_Av4Yjl4Zx8UvEJx-55" target="tV8s_Av4Yjl4Zx8UvEJx-52" edge="1">
          <mxGeometry x="0.1887" y="-9" relative="1" as="geometry">
            <mxPoint as="offset" />
          </mxGeometry>
        </mxCell>
        <mxCell id="tV8s_Av4Yjl4Zx8UvEJx-65" value="Mount &amp;amp; Scan" style="text;html=1;align=center;verticalAlign=middle;whiteSpace=wrap;rounded=0;fontFamily=Comic Sans MS;fontSize=12;fontColor=default;" parent="1" vertex="1">
          <mxGeometry x="619" y="312" width="118" height="30" as="geometry" />
        </mxCell>
        <mxCell id="tV8s_Av4Yjl4Zx8UvEJx-69" value="" style="group;fontSize=7;fontFamily=Comic Sans MS;" parent="1" vertex="1" connectable="0">
          <mxGeometry x="737" y="287" width="57.14" height="50" as="geometry" />
        </mxCell>
        <mxCell id="tV8s_Av4Yjl4Zx8UvEJx-66" value="" style="curved=1;endArrow=classic;html=1;rounded=0;sketch=1;jiggle=2;curveFitting=1;strokeColor=default;align=center;verticalAlign=middle;fontFamily=Comic Sans MS;fontSize=16;fontColor=default;labelBackgroundColor=default;edgeStyle=orthogonalEdgeStyle;" parent="tV8s_Av4Yjl4Zx8UvEJx-69" edge="1">
          <mxGeometry width="50" height="50" relative="1" as="geometry">
            <mxPoint x="21.427500000000002" y="50" as="sourcePoint" />
            <mxPoint x="57.14" y="14.285714285714286" as="targetPoint" />
            <Array as="points">
              <mxPoint x="57.14" y="50" />
              <mxPoint x="21.427500000000002" y="14.285714285714286" />
            </Array>
          </mxGeometry>
        </mxCell>
        <mxCell id="tV8s_Av4Yjl4Zx8UvEJx-67" value="" style="curved=1;endArrow=classic;html=1;rounded=0;sketch=1;jiggle=2;curveFitting=1;strokeColor=default;align=center;verticalAlign=middle;fontFamily=Comic Sans MS;fontSize=16;fontColor=default;labelBackgroundColor=default;edgeStyle=orthogonalEdgeStyle;" parent="tV8s_Av4Yjl4Zx8UvEJx-69" edge="1">
          <mxGeometry width="50" height="50" relative="1" as="geometry">
            <mxPoint x="35.712500000000006" as="sourcePoint" />
            <mxPoint y="35.714285714285715" as="targetPoint" />
            <Array as="points">
              <mxPoint />
              <mxPoint x="35.712500000000006" y="35.714285714285715" />
            </Array>
          </mxGeometry>
        </mxCell>
        <mxCell id="tV8s_Av4Yjl4Zx8UvEJx-68" value="24&lt;div style=&quot;font-size: 13px;&quot;&gt;Hours&lt;/div&gt;" style="text;html=1;align=center;verticalAlign=middle;whiteSpace=wrap;rounded=0;fontFamily=Comic Sans MS;fontSize=13;fontColor=default;" parent="tV8s_Av4Yjl4Zx8UvEJx-69" vertex="1">
          <mxGeometry x="7.1425" y="14.285714285714286" width="42.855000000000004" height="21.42857142857143" as="geometry" />
        </mxCell>
        <mxCell id="tV8s_Av4Yjl4Zx8UvEJx-70" value="PaaS" style="rounded=1;whiteSpace=wrap;html=1;fillColor=#f5f5f5;fontColor=#333333;strokeColor=#666666;sketch=1;curveFitting=1;jiggle=2;fontFamily=Comic Sans MS;" parent="1" vertex="1">
          <mxGeometry x="729" y="392" width="72" height="210" as="geometry" />
        </mxCell>
        <mxCell id="tV8s_Av4Yjl4Zx8UvEJx-71" value="IAM" style="rounded=1;whiteSpace=wrap;html=1;fillColor=#f5f5f5;fontColor=#333333;strokeColor=#666666;sketch=1;curveFitting=1;jiggle=2;fontFamily=Comic Sans MS;" parent="1" vertex="1">
          <mxGeometry x="729.57" y="612" width="72" height="30" as="geometry" />
        </mxCell>
        <mxCell id="Qb0HPknwYdtWdCZL-Vk6-1" value="" style="rounded=0;whiteSpace=wrap;html=1;shadow=1;sketch=1;jiggle=2;curveFitting=1;align=center;verticalAlign=middle;fontFamily=Comic Sans MS;fontSize=16;" parent="1" vertex="1">
          <mxGeometry x="228" y="810" width="600" height="560" as="geometry" />
        </mxCell>
        <mxCell id="Qb0HPknwYdtWdCZL-Vk6-4" value="VNet Peering" style="edgeStyle=orthogonalEdgeStyle;curved=1;rounded=0;orthogonalLoop=1;jettySize=auto;html=1;exitX=0;exitY=0.5;exitDx=0;exitDy=0;sketch=1;curveFitting=1;jiggle=2;fontFamily=Comic Sans MS;entryX=1.01;entryY=0.593;entryDx=0;entryDy=0;entryPerimeter=0;" parent="1" source="Qb0HPknwYdtWdCZL-Vk6-6" target="Qb0HPknwYdtWdCZL-Vk6-11" edge="1">
          <mxGeometry relative="1" as="geometry">
            <mxPoint x="454" y="1099" as="targetPoint" />
          </mxGeometry>
        </mxCell>
        <mxCell id="Qb0HPknwYdtWdCZL-Vk6-5" value="Network Security Group Flow Logs" style="edgeStyle=orthogonalEdgeStyle;curved=1;rounded=0;orthogonalLoop=1;jettySize=auto;html=1;exitX=0.5;exitY=1;exitDx=0;exitDy=0;strokeColor=default;align=center;verticalAlign=middle;fontFamily=Comic Sans MS;fontSize=13;fontColor=default;labelBackgroundColor=default;endArrow=classic;entryX=1;entryY=0.5;entryDx=0;entryDy=0;entryPerimeter=0;flowAnimation=1;dashed=1;strokeWidth=2;" parent="1" source="Qb0HPknwYdtWdCZL-Vk6-6" target="Qb0HPknwYdtWdCZL-Vk6-15" edge="1">
          <mxGeometry x="-0.036" y="-30" relative="1" as="geometry">
            <mxPoint as="offset" />
          </mxGeometry>
        </mxCell>
        <mxCell id="Qb0HPknwYdtWdCZL-Vk6-6" value="" style="rounded=1;whiteSpace=wrap;html=1;fillColor=#f5f5f5;fontColor=#333333;strokeColor=#666666;sketch=1;curveFitting=1;jiggle=2;fontFamily=Comic Sans MS;" parent="1" vertex="1">
          <mxGeometry x="500" y="1118" width="210" height="90" as="geometry" />
        </mxCell>
        <mxCell id="Qb0HPknwYdtWdCZL-Vk6-10" value="VNet Peering" style="edgeStyle=orthogonalEdgeStyle;curved=1;rounded=0;orthogonalLoop=1;jettySize=auto;html=1;exitX=0;exitY=0.5;exitDx=0;exitDy=0;sketch=1;curveFitting=1;jiggle=2;fontFamily=Comic Sans MS;entryX=1.03;entryY=0.384;entryDx=0;entryDy=0;entryPerimeter=0;" parent="1" target="Qb0HPknwYdtWdCZL-Vk6-11" edge="1">
          <mxGeometry relative="1" as="geometry">
            <mxPoint x="500" y="1046" as="sourcePoint" />
            <mxPoint x="454" y="1089.5" as="targetPoint" />
          </mxGeometry>
        </mxCell>
        <mxCell id="Qb0HPknwYdtWdCZL-Vk6-11" value="" style="rounded=1;whiteSpace=wrap;html=1;fillColor=#f5f5f5;fontColor=#333333;strokeColor=#666666;sketch=1;curveFitting=1;jiggle=2;fontFamily=Comic Sans MS;" parent="1" vertex="1">
          <mxGeometry x="256" y="1000" width="100" height="220" as="geometry" />
        </mxCell>
        <mxCell id="Qb0HPknwYdtWdCZL-Vk6-15" value="Blob" style="shape=cylinder3;whiteSpace=wrap;html=1;boundedLbl=1;backgroundOutline=1;size=15;rounded=1;shadow=1;sketch=1;jiggle=2;curveFitting=1;strokeColor=#666666;align=center;verticalAlign=middle;fontFamily=Comic Sans MS;fontSize=16;fontColor=#333333;fillColor=#f5f5f5;" parent="1" vertex="1">
          <mxGeometry x="276" y="1260" width="60" height="80" as="geometry" />
        </mxCell>
        <mxCell id="Qb0HPknwYdtWdCZL-Vk6-16" value="" style="line;strokeWidth=2;html=1;rounded=1;shadow=0;strokeColor=#808080;align=center;verticalAlign=middle;fontFamily=Comic Sans MS;fontSize=16;fontColor=default;fillColor=#e1d5e7;dashed=1;" parent="1" vertex="1">
          <mxGeometry x="248" y="950" width="540" height="11.25" as="geometry" />
        </mxCell>
        <mxCell id="Qb0HPknwYdtWdCZL-Vk6-17" value="" style="rounded=1;whiteSpace=wrap;html=1;fillColor=#e1d5e7;strokeColor=#9673a6;sketch=1;curveFitting=1;jiggle=2;fontFamily=Comic Sans MS;" parent="1" vertex="1">
          <mxGeometry x="388" y="830" width="210" height="90" as="geometry" />
        </mxCell>
        <mxCell id="Qb0HPknwYdtWdCZL-Vk6-23" value="" style="rounded=1;whiteSpace=wrap;html=1;fillColor=#f5f5f5;fontColor=#333333;strokeColor=#666666;sketch=1;curveFitting=1;jiggle=2;fontFamily=Comic Sans MS;" parent="1" vertex="1">
          <mxGeometry x="498" y="1000" width="210" height="90" as="geometry" />
        </mxCell>
        <mxCell id="Qb0HPknwYdtWdCZL-Vk6-27" style="edgeStyle=orthogonalEdgeStyle;curved=1;rounded=0;sketch=1;jiggle=2;curveFitting=1;orthogonalLoop=1;jettySize=auto;html=1;exitX=0.5;exitY=0;exitDx=0;exitDy=0;exitPerimeter=0;entryX=0.56;entryY=0.944;entryDx=0;entryDy=0;strokeColor=default;align=center;verticalAlign=middle;fontFamily=Comic Sans MS;fontSize=16;fontColor=default;labelBackgroundColor=default;endArrow=classic;entryPerimeter=0;" parent="1" target="Qb0HPknwYdtWdCZL-Vk6-51" edge="1">
          <mxGeometry relative="1" as="geometry">
            <mxPoint x="627" y="1020" as="sourcePoint" />
            <mxPoint x="628" y="985" as="targetPoint" />
          </mxGeometry>
        </mxCell>
        <mxCell id="Qb0HPknwYdtWdCZL-Vk6-30" value="&lt;ul style=&quot;font-size: 14px;&quot;&gt;&lt;li style=&quot;font-size: 14px;&quot;&gt;Vulerability&lt;/li&gt;&lt;li style=&quot;font-size: 14px;&quot;&gt;Compliance&lt;/li&gt;&lt;li style=&quot;font-size: 14px;&quot;&gt;Embedded Secret&lt;/li&gt;&lt;li style=&quot;font-size: 14px;&quot;&gt;Malware&lt;/li&gt;&lt;/ul&gt;" style="edgeStyle=orthogonalEdgeStyle;curved=1;rounded=0;sketch=1;jiggle=2;curveFitting=1;orthogonalLoop=1;jettySize=auto;html=1;exitX=0.397;exitY=-0.028;exitDx=0;exitDy=0;entryX=0.998;entryY=0.434;entryDx=0;entryDy=0;entryPerimeter=0;strokeColor=default;align=left;verticalAlign=middle;fontFamily=Comic Sans MS;fontSize=14;fontColor=default;labelBackgroundColor=none;endArrow=classic;exitPerimeter=0;" parent="1" source="Qb0HPknwYdtWdCZL-Vk6-51" target="Qb0HPknwYdtWdCZL-Vk6-43" edge="1">
          <mxGeometry x="0.3069" y="-8" relative="1" as="geometry">
            <mxPoint as="offset" />
            <mxPoint x="628" y="965" as="sourcePoint" />
            <mxPoint x="512" y="869" as="targetPoint" />
          </mxGeometry>
        </mxCell>
        <mxCell id="Qb0HPknwYdtWdCZL-Vk6-31" value="Mount &amp;amp; Scan" style="text;html=1;align=center;verticalAlign=middle;whiteSpace=wrap;rounded=0;fontFamily=Comic Sans MS;fontSize=12;fontColor=default;" parent="1" vertex="1">
          <mxGeometry x="610" y="909" width="118" height="30" as="geometry" />
        </mxCell>
        <mxCell id="Qb0HPknwYdtWdCZL-Vk6-32" value="" style="group;fontSize=7;fontFamily=Comic Sans MS;" parent="1" vertex="1" connectable="0">
          <mxGeometry x="736" y="895" width="57.14" height="50" as="geometry" />
        </mxCell>
        <mxCell id="Qb0HPknwYdtWdCZL-Vk6-33" value="" style="curved=1;endArrow=classic;html=1;rounded=0;sketch=1;jiggle=2;curveFitting=1;strokeColor=default;align=center;verticalAlign=middle;fontFamily=Comic Sans MS;fontSize=16;fontColor=default;labelBackgroundColor=default;edgeStyle=orthogonalEdgeStyle;" parent="Qb0HPknwYdtWdCZL-Vk6-32" edge="1">
          <mxGeometry width="50" height="50" relative="1" as="geometry">
            <mxPoint x="21.427500000000002" y="50" as="sourcePoint" />
            <mxPoint x="57.14" y="14.285714285714286" as="targetPoint" />
            <Array as="points">
              <mxPoint x="57.14" y="50" />
              <mxPoint x="21.427500000000002" y="14.285714285714286" />
            </Array>
          </mxGeometry>
        </mxCell>
        <mxCell id="Qb0HPknwYdtWdCZL-Vk6-34" value="" style="curved=1;endArrow=classic;html=1;rounded=0;sketch=1;jiggle=2;curveFitting=1;strokeColor=default;align=center;verticalAlign=middle;fontFamily=Comic Sans MS;fontSize=16;fontColor=default;labelBackgroundColor=default;edgeStyle=orthogonalEdgeStyle;" parent="Qb0HPknwYdtWdCZL-Vk6-32" edge="1">
          <mxGeometry width="50" height="50" relative="1" as="geometry">
            <mxPoint x="35.712500000000006" as="sourcePoint" />
            <mxPoint y="35.714285714285715" as="targetPoint" />
            <Array as="points">
              <mxPoint />
              <mxPoint x="35.712500000000006" y="35.714285714285715" />
            </Array>
          </mxGeometry>
        </mxCell>
        <mxCell id="Qb0HPknwYdtWdCZL-Vk6-35" value="24&lt;div style=&quot;font-size: 13px;&quot;&gt;Hours&lt;/div&gt;" style="text;html=1;align=center;verticalAlign=middle;whiteSpace=wrap;rounded=0;fontFamily=Comic Sans MS;fontSize=13;fontColor=default;" parent="Qb0HPknwYdtWdCZL-Vk6-32" vertex="1">
          <mxGeometry x="7.1425" y="14.285714285714286" width="42.855000000000004" height="21.42857142857143" as="geometry" />
        </mxCell>
        <mxCell id="Qb0HPknwYdtWdCZL-Vk6-36" value="PaaS" style="rounded=1;whiteSpace=wrap;html=1;fillColor=#f5f5f5;fontColor=#333333;strokeColor=#666666;sketch=1;curveFitting=1;jiggle=2;fontFamily=Comic Sans MS;" parent="1" vertex="1">
          <mxGeometry x="728" y="1000" width="72" height="210" as="geometry" />
        </mxCell>
        <mxCell id="Qb0HPknwYdtWdCZL-Vk6-99" value="IAM Security" style="edgeStyle=orthogonalEdgeStyle;rounded=0;hachureGap=4;orthogonalLoop=1;jettySize=auto;html=1;exitX=0;exitY=0.5;exitDx=0;exitDy=0;entryX=0.25;entryY=1;entryDx=0;entryDy=0;fontFamily=Comic Sans MS;curved=1;flowAnimation=1;strokeWidth=2;fontSize=13;" parent="1" source="Qb0HPknwYdtWdCZL-Vk6-37" target="tV8s_Av4Yjl4Zx8UvEJx-1" edge="1">
          <mxGeometry x="0.1401" y="-32" relative="1" as="geometry">
            <Array as="points">
              <mxPoint x="-190" y="1417" />
            </Array>
            <mxPoint as="offset" />
          </mxGeometry>
        </mxCell>
        <mxCell id="Qb0HPknwYdtWdCZL-Vk6-100" style="edgeStyle=orthogonalEdgeStyle;rounded=0;sketch=1;hachureGap=4;jiggle=2;curveFitting=1;orthogonalLoop=1;jettySize=auto;html=1;fontFamily=Architects Daughter;fontSource=https%3A%2F%2Ffonts.googleapis.com%2Fcss%3Ffamily%3DArchitects%2BDaughter;" parent="1" source="Qb0HPknwYdtWdCZL-Vk6-37" target="Qb0HPknwYdtWdCZL-Vk6-1" edge="1">
          <mxGeometry relative="1" as="geometry" />
        </mxCell>
        <mxCell id="Qb0HPknwYdtWdCZL-Vk6-37" value="Microsoft Entra ID" style="rounded=1;whiteSpace=wrap;html=1;fillColor=#cce5ff;strokeColor=#36393d;sketch=1;curveFitting=1;jiggle=2;fontFamily=Comic Sans MS;fontSize=14;" parent="1" vertex="1">
          <mxGeometry x="228" y="1413" width="192" height="57" as="geometry" />
        </mxCell>
        <mxCell id="Qb0HPknwYdtWdCZL-Vk6-38" value="" style="shape=image;imageAspect=0;aspect=fixed;verticalLabelPosition=bottom;verticalAlign=top;sketch=1;hachureGap=4;jiggle=2;curveFitting=1;fontFamily=Architects Daughter;fontSource=https%3A%2F%2Ffonts.googleapis.com%2Fcss%3Ffamily%3DArchitects%2BDaughter;image=https://swimburger.net/media/ppnn3pcl/azure.png;" parent="1" vertex="1">
          <mxGeometry x="234" y="815" width="45" height="45" as="geometry" />
        </mxCell>
        <mxCell id="Qb0HPknwYdtWdCZL-Vk6-39" value="" style="image;aspect=fixed;html=1;points=[];align=center;fontSize=12;image=img/lib/azure2/networking/Virtual_Networks.svg;sketch=1;hachureGap=4;jiggle=2;curveFitting=1;fontFamily=Architects Daughter;fontSource=https%3A%2F%2Ffonts.googleapis.com%2Fcss%3Ffamily%3DArchitects%2BDaughter;" parent="1" vertex="1">
          <mxGeometry x="392" y="836" width="30.15" height="18" as="geometry" />
        </mxCell>
        <mxCell id="Qb0HPknwYdtWdCZL-Vk6-40" value="" style="image;aspect=fixed;html=1;points=[];align=center;fontSize=12;image=img/lib/azure2/networking/Virtual_Networks.svg;sketch=1;hachureGap=4;jiggle=2;curveFitting=1;fontFamily=Architects Daughter;fontSource=https%3A%2F%2Ffonts.googleapis.com%2Fcss%3Ffamily%3DArchitects%2BDaughter;" parent="1" vertex="1">
          <mxGeometry x="263" y="1008" width="30.15" height="18" as="geometry" />
        </mxCell>
        <mxCell id="Qb0HPknwYdtWdCZL-Vk6-41" value="" style="image;aspect=fixed;html=1;points=[];align=center;fontSize=12;image=img/lib/azure2/networking/Virtual_Networks.svg;sketch=1;hachureGap=4;jiggle=2;curveFitting=1;fontFamily=Architects Daughter;fontSource=https%3A%2F%2Ffonts.googleapis.com%2Fcss%3Ffamily%3DArchitects%2BDaughter;" parent="1" vertex="1">
          <mxGeometry x="504" y="1005" width="30.15" height="18" as="geometry" />
        </mxCell>
        <mxCell id="Qb0HPknwYdtWdCZL-Vk6-42" value="" style="image;aspect=fixed;html=1;points=[];align=center;fontSize=12;image=img/lib/azure2/networking/Virtual_Networks.svg;sketch=1;hachureGap=4;jiggle=2;curveFitting=1;fontFamily=Architects Daughter;fontSource=https%3A%2F%2Ffonts.googleapis.com%2Fcss%3Ffamily%3DArchitects%2BDaughter;" parent="1" vertex="1">
          <mxGeometry x="506" y="1125" width="30.15" height="18" as="geometry" />
        </mxCell>
        <mxCell id="Qb0HPknwYdtWdCZL-Vk6-43" value="Scanner VM" style="image;aspect=fixed;html=1;points=[];align=center;fontSize=12;image=img/lib/azure2/compute/Virtual_Machine.svg;sketch=1;hachureGap=4;jiggle=2;curveFitting=1;fontFamily=Architects Daughter;fontSource=https%3A%2F%2Ffonts.googleapis.com%2Fcss%3Ffamily%3DArchitects%2BDaughter;" parent="1" vertex="1">
          <mxGeometry x="477" y="848" width="46.36" height="43" as="geometry" />
        </mxCell>
        <mxCell id="Qb0HPknwYdtWdCZL-Vk6-44" value="VM" style="image;aspect=fixed;html=1;points=[];align=center;fontSize=12;image=img/lib/azure2/compute/Virtual_Machine.svg;sketch=1;hachureGap=4;jiggle=2;curveFitting=1;fontFamily=Architects Daughter;fontSource=https%3A%2F%2Ffonts.googleapis.com%2Fcss%3Ffamily%3DArchitects%2BDaughter;" parent="1" vertex="1">
          <mxGeometry x="542" y="1019" width="46.36" height="43" as="geometry" />
        </mxCell>
        <mxCell id="Qb0HPknwYdtWdCZL-Vk6-45" value="AKS Nodes" style="image;aspect=fixed;html=1;points=[];align=center;fontSize=12;image=img/lib/azure2/compute/Virtual_Machine.svg;sketch=1;hachureGap=4;jiggle=2;curveFitting=1;fontFamily=Architects Daughter;fontSource=https%3A%2F%2Ffonts.googleapis.com%2Fcss%3Ffamily%3DArchitects%2BDaughter;" parent="1" vertex="1">
          <mxGeometry x="607" y="1019" width="46.36" height="43" as="geometry" />
        </mxCell>
        <mxCell id="Qb0HPknwYdtWdCZL-Vk6-46" value="VM" style="image;aspect=fixed;html=1;points=[];align=center;fontSize=12;image=img/lib/azure2/compute/Virtual_Machine.svg;sketch=1;hachureGap=4;jiggle=2;curveFitting=1;fontFamily=Architects Daughter;fontSource=https%3A%2F%2Ffonts.googleapis.com%2Fcss%3Ffamily%3DArchitects%2BDaughter;" parent="1" vertex="1">
          <mxGeometry x="548" y="1135" width="46.36" height="43" as="geometry" />
        </mxCell>
        <mxCell id="Qb0HPknwYdtWdCZL-Vk6-47" value="VM" style="image;aspect=fixed;html=1;points=[];align=center;fontSize=12;image=img/lib/azure2/compute/Virtual_Machine.svg;sketch=1;hachureGap=4;jiggle=2;curveFitting=1;fontFamily=Architects Daughter;fontSource=https%3A%2F%2Ffonts.googleapis.com%2Fcss%3Ffamily%3DArchitects%2BDaughter;" parent="1" vertex="1">
          <mxGeometry x="615" y="1135" width="46.36" height="43" as="geometry" />
        </mxCell>
        <mxCell id="Qb0HPknwYdtWdCZL-Vk6-48" value="" style="image;sketch=0;aspect=fixed;html=1;points=[];align=center;fontSize=12;image=img/lib/mscae/MD_snapshot.svg;hachureGap=4;jiggle=2;curveFitting=1;fontFamily=Architects Daughter;fontSource=https%3A%2F%2Ffonts.googleapis.com%2Fcss%3Ffamily%3DArchitects%2BDaughter;" parent="1" vertex="1">
          <mxGeometry x="541" y="945" width="42.86" height="36" as="geometry" />
        </mxCell>
        <mxCell id="Qb0HPknwYdtWdCZL-Vk6-50" style="edgeStyle=orthogonalEdgeStyle;rounded=0;sketch=1;hachureGap=4;jiggle=2;curveFitting=1;orthogonalLoop=1;jettySize=auto;html=1;entryX=0.513;entryY=0.917;entryDx=0;entryDy=0;entryPerimeter=0;fontFamily=Architects Daughter;fontSource=https%3A%2F%2Ffonts.googleapis.com%2Fcss%3Ffamily%3DArchitects%2BDaughter;curved=1;" parent="1" source="Qb0HPknwYdtWdCZL-Vk6-44" target="Qb0HPknwYdtWdCZL-Vk6-48" edge="1">
          <mxGeometry relative="1" as="geometry" />
        </mxCell>
        <mxCell id="Qb0HPknwYdtWdCZL-Vk6-51" value="" style="image;sketch=0;aspect=fixed;html=1;points=[];align=center;fontSize=12;image=img/lib/mscae/MD_snapshot.svg;hachureGap=4;jiggle=2;curveFitting=1;fontFamily=Architects Daughter;fontSource=https%3A%2F%2Ffonts.googleapis.com%2Fcss%3Ffamily%3DArchitects%2BDaughter;" parent="1" vertex="1">
          <mxGeometry x="608" y="947" width="42.86" height="36" as="geometry" />
        </mxCell>
        <mxCell id="Qb0HPknwYdtWdCZL-Vk6-52" value="Azure&lt;div&gt;Firewall&lt;/div&gt;" style="image;sketch=0;aspect=fixed;html=1;points=[];align=center;fontSize=12;image=img/lib/mscae/Azure_Firewall.svg;hachureGap=4;jiggle=2;curveFitting=1;fontFamily=Architects Daughter;fontSource=https%3A%2F%2Ffonts.googleapis.com%2Fcss%3Ffamily%3DArchitects%2BDaughter;" parent="1" vertex="1">
          <mxGeometry x="282" y="1039" width="50" height="50" as="geometry" />
        </mxCell>
        <mxCell id="Qb0HPknwYdtWdCZL-Vk6-53" value="App Gateway" style="image;aspect=fixed;html=1;points=[];align=center;fontSize=12;image=img/lib/azure2/networking/Application_Gateways.svg;sketch=1;hachureGap=4;jiggle=2;curveFitting=1;fontFamily=Architects Daughter;fontSource=https%3A%2F%2Ffonts.googleapis.com%2Fcss%3Ffamily%3DArchitects%2BDaughter;" parent="1" vertex="1">
          <mxGeometry x="283" y="1137" width="50" height="50" as="geometry" />
        </mxCell>
        <mxCell id="Qb0HPknwYdtWdCZL-Vk6-54" value="Config &amp;amp; Audit Logs" style="edgeStyle=orthogonalEdgeStyle;rounded=0;hachureGap=4;orthogonalLoop=1;jettySize=auto;html=1;exitX=0;exitY=0.5;exitDx=0;exitDy=0;entryX=0.788;entryY=0.987;entryDx=0;entryDy=0;entryPerimeter=0;fontFamily=Comic Sans MS;curved=1;flowAnimation=1;strokeWidth=2;fontSize=13;" parent="1" source="Qb0HPknwYdtWdCZL-Vk6-38" target="tV8s_Av4Yjl4Zx8UvEJx-1" edge="1">
          <mxGeometry x="0.1725" y="-69" relative="1" as="geometry">
            <mxPoint as="offset" />
          </mxGeometry>
        </mxCell>
        <mxCell id="Qb0HPknwYdtWdCZL-Vk6-55" value="Flow Logs Injection" style="edgeStyle=orthogonalEdgeStyle;rounded=0;hachureGap=4;orthogonalLoop=1;jettySize=auto;html=1;exitX=0;exitY=0.5;exitDx=0;exitDy=0;exitPerimeter=0;entryX=0.478;entryY=1;entryDx=0;entryDy=0;entryPerimeter=0;fontFamily=Comic Sans MS;curved=1;strokeWidth=2;flowAnimation=1;fontSize=13;" parent="1" source="Qb0HPknwYdtWdCZL-Vk6-15" target="tV8s_Av4Yjl4Zx8UvEJx-1" edge="1">
          <mxGeometry x="0.0038" y="-114" relative="1" as="geometry">
            <mxPoint as="offset" />
          </mxGeometry>
        </mxCell>
        <mxCell id="Qb0HPknwYdtWdCZL-Vk6-57" value="&lt;span style=&quot;color: rgb(0, 0, 0); font-size: 13px; font-style: normal; font-variant-ligatures: normal; font-variant-caps: normal; font-weight: 400; letter-spacing: normal; orphans: 2; text-align: center; text-indent: 0px; text-transform: none; widows: 2; word-spacing: 0px; -webkit-text-stroke-width: 0px; white-space: nowrap; background-color: rgb(255, 255, 255); text-decoration-thickness: initial; text-decoration-style: initial; text-decoration-color: initial; float: none; display: inline !important;&quot;&gt;Cloud Workload&lt;/span&gt;&lt;div style=&quot;forced-color-adjust: none; color: rgb(0, 0, 0); font-size: 13px; font-style: normal; font-variant-ligatures: normal; font-variant-caps: normal; font-weight: 400; letter-spacing: normal; orphans: 2; text-align: center; text-indent: 0px; text-transform: none; widows: 2; word-spacing: 0px; -webkit-text-stroke-width: 0px; white-space: nowrap; text-decoration-thickness: initial; text-decoration-style: initial; text-decoration-color: initial;&quot;&gt;Scanning Results&lt;/div&gt;" style="edgeStyle=orthogonalEdgeStyle;rounded=0;hachureGap=4;orthogonalLoop=1;jettySize=auto;html=1;exitX=0;exitY=0.75;exitDx=0;exitDy=0;entryX=0.643;entryY=1.068;entryDx=0;entryDy=0;entryPerimeter=0;fontFamily=Comic Sans MS;curved=1;flowAnimation=1;strokeWidth=2;fontSize=13;" parent="1" source="Qb0HPknwYdtWdCZL-Vk6-17" target="tV8s_Av4Yjl4Zx8UvEJx-1" edge="1">
          <mxGeometry x="-0.2071" y="-54" relative="1" as="geometry">
            <Array as="points">
              <mxPoint x="383" y="906" />
              <mxPoint x="-99" y="906" />
            </Array>
            <mxPoint x="-1" as="offset" />
          </mxGeometry>
        </mxCell>
        <mxCell id="Qb0HPknwYdtWdCZL-Vk6-58" value="Application Users" style="shape=umlActor;verticalLabelPosition=bottom;verticalAlign=top;html=1;outlineConnect=0;rounded=1;shadow=1;sketch=1;jiggle=2;curveFitting=1;strokeColor=#1A1A1A;align=center;fontFamily=Comic Sans MS;fontSize=16;fontColor=default;fillColor=#e1d5e7;" parent="1" vertex="1">
          <mxGeometry x="118" y="1024" width="30" height="60" as="geometry" />
        </mxCell>
        <mxCell id="Qb0HPknwYdtWdCZL-Vk6-59" style="edgeStyle=orthogonalEdgeStyle;rounded=0;sketch=1;hachureGap=4;jiggle=2;curveFitting=1;orthogonalLoop=1;jettySize=auto;html=1;fontFamily=Architects Daughter;fontSource=https%3A%2F%2Ffonts.googleapis.com%2Fcss%3Ffamily%3DArchitects%2BDaughter;curved=1;" parent="1" source="Qb0HPknwYdtWdCZL-Vk6-58" target="Qb0HPknwYdtWdCZL-Vk6-11" edge="1">
          <mxGeometry relative="1" as="geometry" />
        </mxCell>
        <mxCell id="OPS7bRVriQ_sU7xL0uJF-1" value="Whitelisting" style="text;html=1;align=center;verticalAlign=middle;whiteSpace=wrap;rounded=0;fontFamily=Architects Daughter;fontSource=https%3A%2F%2Ffonts.googleapis.com%2Fcss%3Ffamily%3DArchitects%2BDaughter;" parent="1" vertex="1">
          <mxGeometry x="203" y="164" width="72" height="30" as="geometry" />
        </mxCell>
        <mxCell id="OPS7bRVriQ_sU7xL0uJF-2" value="Prisma Cloud&lt;div&gt;Readonly&lt;/div&gt;" style="text;html=1;align=center;verticalAlign=middle;whiteSpace=wrap;rounded=0;fontFamily=Architects Daughter;fontSource=https%3A%2F%2Ffonts.googleapis.com%2Fcss%3Ffamily%3DArchitects%2BDaughter;" parent="1" vertex="1">
          <mxGeometry x="-250" y="298" width="103" height="30" as="geometry" />
        </mxCell>
        <mxCell id="OPS7bRVriQ_sU7xL0uJF-3" value="AWS Role&lt;div&gt;&lt;br&gt;&lt;/div&gt;" style="shape=umlActor;verticalLabelPosition=bottom;verticalAlign=top;html=1;outlineConnect=0;sketch=1;hachureGap=4;jiggle=2;curveFitting=1;fontFamily=Architects Daughter;fontSource=https%3A%2F%2Ffonts.googleapis.com%2Fcss%3Ffamily%3DArchitects%2BDaughter;" parent="1" vertex="1">
          <mxGeometry x="-211" y="233" width="20" height="41" as="geometry" />
        </mxCell>
        <mxCell id="OPS7bRVriQ_sU7xL0uJF-6" value="Whitelisting" style="text;html=1;align=center;verticalAlign=middle;whiteSpace=wrap;rounded=0;fontFamily=Architects Daughter;fontSource=https%3A%2F%2Ffonts.googleapis.com%2Fcss%3Ffamily%3DArchitects%2BDaughter;" parent="1" vertex="1">
          <mxGeometry x="290" y="626" width="72" height="30" as="geometry" />
        </mxCell>
      </root>
    </mxGraphModel>
  </diagram>
</mxfile>
